<svg width="28" height="28" viewBox="0 0 28 28" fill="none" xmlns="http://www.w3.org/2000/svg">
<path d="M4.66669 25.6667V4.66666C4.66669 4.48554 4.70886 4.30691 4.78986 4.14491C4.87085 3.98291 4.98846 3.842 5.13335 3.73333C6.34503 2.82457 7.81876 2.33333 9.33335 2.33333C12.8334 2.33333 15.1667 4.66666 17.8885 4.66666C19.4441 4.66666 20.6368 4.35555 21.4667 3.73333C21.64 3.60333 21.8461 3.52417 22.0619 3.50471C22.2777 3.48525 22.4946 3.52627 22.6884 3.62316C22.8822 3.72006 23.0452 3.869 23.1591 4.05331C23.273 4.23761 23.3334 4.45 23.3334 4.66666V16.3333C23.3334 16.5144 23.2912 16.6931 23.2102 16.8551C23.1292 17.0171 23.0116 17.158 22.8667 17.2667C21.655 18.1754 20.1813 18.6667 18.6667 18.6667C15.1667 18.6667 12.8334 16.3333 9.33335 16.3333C7.61149 16.3334 5.95005 16.968 4.66669 18.116" fill="#258CF4"/>
<path d="M4.66669 25.6667V4.66666C4.66669 4.48554 4.70886 4.30691 4.78986 4.14491C4.87085 3.98291 4.98846 3.842 5.13335 3.73333C6.34503 2.82457 7.81876 2.33333 9.33335 2.33333C12.8334 2.33333 15.1667 4.66666 17.8885 4.66666C19.4441 4.66666 20.6368 4.35555 21.4667 3.73333C21.64 3.60333 21.8461 3.52417 22.0619 3.50471C22.2777 3.48525 22.4946 3.52627 22.6884 3.62316C22.8822 3.72006 23.0452 3.869 23.1591 4.05331C23.273 4.23761 23.3334 4.45 23.3334 4.66666V16.3333C23.3334 16.5144 23.2912 16.6931 23.2102 16.8551C23.1292 17.0171 23.0116 17.158 22.8667 17.2667C21.655 18.1754 20.1813 18.6667 18.6667 18.6667C15.1667 18.6667 12.8334 16.3333 9.33335 16.3333C7.61149 16.3334 5.95005 16.968 4.66669 18.116" stroke="#258CF4" stroke-linecap="round" stroke-linejoin="round"/>
</svg>
