<svg width="28" height="28" viewBox="0 0 28 28" fill="none" xmlns="http://www.w3.org/2000/svg">
<path d="M4.66669 25.6667V4.66668C4.66669 4.48556 4.70886 4.30693 4.78986 4.14493C4.87085 3.98293 4.98846 3.84202 5.13335 3.73334C6.34503 2.82459 7.81876 2.33334 9.33335 2.33334C12.8334 2.33334 15.1667 4.66668 17.8885 4.66668C19.4441 4.66668 20.6368 4.35557 21.4667 3.73334C21.64 3.60335 21.8461 3.52418 22.0619 3.50472C22.2777 3.48527 22.4946 3.52628 22.6884 3.62318C22.8822 3.72007 23.0452 3.86902 23.1591 4.05332C23.273 4.23763 23.3334 4.45001 23.3334 4.66668V16.3333C23.3334 16.5145 23.2912 16.6931 23.2102 16.8551C23.1292 17.0171 23.0116 17.158 22.8667 17.2667C21.655 18.1754 20.1813 18.6667 18.6667 18.6667C15.1667 18.6667 12.8334 16.3333 9.33335 16.3333C7.61149 16.3334 5.95005 16.9681 4.66669 18.116" fill="#9CA3AF"/>
<path d="M4.66669 25.6667V4.66668C4.66669 4.48556 4.70886 4.30693 4.78986 4.14493C4.87085 3.98293 4.98846 3.84202 5.13335 3.73334C6.34503 2.82459 7.81876 2.33334 9.33335 2.33334C12.8334 2.33334 15.1667 4.66668 17.8885 4.66668C19.4441 4.66668 20.6368 4.35557 21.4667 3.73334C21.64 3.60335 21.8461 3.52418 22.0619 3.50472C22.2777 3.48527 22.4946 3.52628 22.6884 3.62318C22.8822 3.72007 23.0452 3.86902 23.1591 4.05332C23.273 4.23763 23.3334 4.45001 23.3334 4.66668V16.3333C23.3334 16.5145 23.2912 16.6931 23.2102 16.8551C23.1292 17.0171 23.0116 17.158 22.8667 17.2667C21.655 18.1754 20.1813 18.6667 18.6667 18.6667C15.1667 18.6667 12.8334 16.3333 9.33335 16.3333C7.61149 16.3334 5.95005 16.9681 4.66669 18.116" stroke="#9CA3AF" stroke-linecap="round" stroke-linejoin="round"/>
</svg>
