<svg width="28" height="28" viewBox="0 0 28 28" fill="none" xmlns="http://www.w3.org/2000/svg">
<path d="M11.0477 4H4.61909C3.90901 4 3.33337 4.57563 3.33337 5.28571V11.7143C3.33337 12.4244 3.90901 13 4.61909 13H11.0477C11.7577 13 12.3334 12.4244 12.3334 11.7143V5.28571C12.3334 4.57563 11.7577 4 11.0477 4Z" fill="#9CA3AF"/>
<path d="M23.0477 4H16.6191C15.909 4 15.3334 4.57563 15.3334 5.28571V11.7143C15.3334 12.4244 15.909 13 16.6191 13H23.0477C23.7577 13 24.3334 12.4244 24.3334 11.7143V5.28571C24.3334 4.57563 23.7577 4 23.0477 4Z" fill="#9CA3AF"/>
<path d="M23.0477 16H16.6191C15.909 16 15.3334 16.5756 15.3334 17.2857V23.7143C15.3334 24.4244 15.909 25 16.6191 25H23.0477C23.7577 25 24.3334 24.4244 24.3334 23.7143V17.2857C24.3334 16.5756 23.7577 16 23.0477 16Z" fill="#9CA3AF"/>
<path d="M11.0477 16H4.61909C3.90901 16 3.33337 16.5756 3.33337 17.2857V23.7143C3.33337 24.4244 3.90901 25 4.61909 25H11.0477C11.7577 25 12.3334 24.4244 12.3334 23.7143V17.2857C12.3334 16.5756 11.7577 16 11.0477 16Z" fill="#9CA3AF"/>
</svg>
