<svg width="28" height="28" viewBox="0 0 28 28" fill="none" xmlns="http://www.w3.org/2000/svg">
<path d="M24.5 10.5C24.5009 10.1303 24.4286 9.76407 24.2872 9.42246C24.1458 9.08085 23.9382 8.77062 23.6763 8.50967L19.4903 4.32367C19.2294 4.06177 18.9192 3.85415 18.5775 3.71278C18.2359 3.57141 17.8697 3.49909 17.5 3.5H5.83333C5.21449 3.5 4.621 3.74583 4.18342 4.18342C3.74583 4.621 3.5 5.21449 3.5 5.83333V22.1667C3.5 22.7855 3.74583 23.379 4.18342 23.8166C4.621 24.2542 5.21449 24.5 5.83333 24.5H22.1667C22.7855 24.5 23.379 24.2542 23.8166 23.8166C24.2542 23.379 24.5 22.7855 24.5 22.1667V10.5Z" fill="#258CF4"/>
<path d="M17.5 3.5V9.33333C17.5 9.64275 17.6229 9.9395 17.8417 10.1583C18.0605 10.3771 18.3572 10.5 18.6667 10.5H24.5" stroke="white" stroke-linecap="round" stroke-linejoin="round"/>
</svg>
